Coordinates
version=1
nRows=16
nColumns=63
inDegrees=yes

Units are S.I. units (second, meters, Newtons, ...)
If the header above contains a line with 'inDegrees', this indicates whether rotational values are in degrees (yes) or radians (no).

endheader
time	pelvis_tilt	pelvis_list	pelvis_rotation	pelvis_tx	pelvis_ty	pelvis_tz	hip_flexion_r	hip_adduction_r	hip_rotation_r	knee_angle_r	knee_angle_r_beta	ankle_angle_r	subtalar_angle_r	mtp_angle_r	hip_flexion_l	hip_adduction_l	hip_rotation_l	knee_angle_l	knee_angle_l_beta	ankle_angle_l	subtalar_angle_l	mtp_angle_l	L5_S1_Flex_Ext	L5_S1_Lat_Bending	L5_S1_axial_rotation	L4_L5_Flex_Ext	L4_L5_Lat_Bending	L4_L5_axial_rotation	L3_L4_Flex_Ext	L3_L4_Lat_Bending	L3_L4_axial_rotation	L2_L3_Flex_Ext	L2_L3_Lat_Bending	L2_L3_axial_rotation	L1_L2_Flex_Ext	L1_L2_Lat_Bending	L1_L2_axial_rotation	L1_T12_Flex_Ext	L1_T12_Lat_Bending	L1_T12_axial_rotation	Abs_r3	Abs_r2	Abs_r1	Abs_t1	Abs_t2	neck_flexion	neck_bending	neck_rotation	arm_flex_r	arm_add_r	arm_rot_r	elbow_flex_r	pro_sup_r	wrist_flex_r	wrist_dev_r	arm_flex_l	arm_add_l	arm_rot_l	elbow_flex_l	pro_sup_l	wrist_flex_l	wrist_dev_l
3.600000	-4.783876	1.676564	90.785974	0.210362	0.867788	0.681351	-2.747560	-4.831406	1.839750	6.446174	0.112507	28.038441	7.559775	0.000000	-0.255146	3.750628	6.767679	8.189549	0.142935	21.185071	-0.900408	0.000000	-0.480689	-1.160067	-1.531953	-0.892687	-1.542889	-1.627700	-0.789724	-2.820587	-1.627700	-0.549379	-2.820587	-1.340459	-0.446368	-2.365609	-1.244712	-0.274666	-1.796944	-1.148965	-3.433512	-13.122911	-8.520264	0.000000	0.000000	14.319369	12.972772	-17.390007	78.032638	-30.062009	65.900830	149.914492	83.413438	4.814452	-3.004164	6.899077	-20.305309	112.970929	10.365697	6.551051	-16.110768	-12.016234
3.616667	-4.772065	1.655279	90.795019	0.210459	0.867639	0.681444	-2.716448	-4.812140	1.835959	6.443601	0.112462	27.939826	7.558137	0.000000	-0.242253	3.739529	7.142473	8.105787	0.141473	21.436128	-0.984348	0.000000	-0.483547	-1.156657	-1.534198	-0.897995	-1.538354	-1.630085	-0.794420	-2.812296	-1.630085	-0.552646	-2.812296	-1.342423	-0.449022	-2.358655	-1.246536	-0.276299	-1.791662	-1.150649	-3.453929	-13.084336	-8.532749	0.000000	0.000000	14.470818	13.005867	-17.131654	77.738849	-30.160588	65.694417	149.914660	83.835067	4.347139	-3.059180	6.973902	-20.245611	114.502887	10.184188	6.801839	-16.513324	-11.754802
3.633333	-4.755511	1.607578	90.792484	0.210541	0.867469	0.681419	-2.663525	-4.791865	1.804689	6.439912	0.112398	27.862892	7.615526	0.000000	-0.207839	3.721638	7.435582	8.039417	0.140314	21.660004	-1.020573	0.000000	-0.481252	-1.153249	-1.513037	-0.893733	-1.533821	-1.607602	-0.790649	-2.804009	-1.607602	-0.550023	-2.804009	-1.323907	-0.446890	-2.351705	-1.229342	-0.274987	-1.786382	-1.134778	-3.437534	-13.045779	-8.415057	0.000000	0.000000	14.618540	12.987423	-17.105047	77.334691	-30.386135	65.503108	149.915115	84.317060	3.732054	-3.048607	7.131436	-20.165400	116.313770	9.997581	7.079278	-16.967966	-11.483575
3.650000	-4.732563	1.537110	90.804333	0.210558	0.867285	0.681253	-2.610155	-4.761400	1.878794	6.411219	0.111897	27.762394	7.518559	0.000000	-0.165817	3.702688	7.739273	7.974915	0.139189	21.808568	-1.143612	0.000000	-0.473862	-1.149092	-1.475990	-0.880009	-1.528293	-1.568239	-0.778508	-2.793903	-1.568239	-0.541577	-2.793903	-1.291491	-0.440028	-2.343229	-1.199242	-0.270765	-1.779944	-1.106992	-3.384748	-12.998760	-8.209011	0.000000	0.000000	14.733015	12.913755	-17.246821	76.846802	-30.701618	65.336613	149.915855	84.889468	2.980023	-2.891752	7.352491	-20.059409	118.282430	9.815500	7.144235	-17.393320	-11.207249
3.666667	-4.706559	1.445884	90.810586	0.210534	0.867104	0.680950	-2.546007	-4.728648	1.979660	6.376564	0.111292	27.667558	7.387064	0.000000	-0.109649	3.681027	7.946734	7.933134	0.138459	21.886888	-1.255302	0.000000	-0.461795	-1.145198	-1.419860	-0.857599	-1.523114	-1.508601	-0.758682	-2.784435	-1.508601	-0.527785	-2.784435	-1.242377	-0.428823	-2.335288	-1.153636	-0.263869	-1.773912	-1.064895	-3.298553	-12.954710	-7.896833	0.000000	0.000000	14.825014	12.802167	-17.584773	76.272138	-31.112385	65.231360	149.918336	85.487792	2.082287	-2.630910	7.620319	-19.949827	120.118069	9.667691	7.145705	-17.751516	-10.974602
3.683333	-4.658961	1.331140	90.835668	0.210446	0.866921	0.680551	-2.475030	-4.672228	2.104261	6.324262	0.110379	27.566498	7.205760	0.000000	-0.028601	3.635792	8.054758	7.925324	0.138323	21.907756	-1.338607	0.000000	-0.445852	-1.139361	-1.351836	-0.827993	-1.515350	-1.436326	-0.732491	-2.770243	-1.436326	-0.509565	-2.770243	-1.182857	-0.414019	-2.323385	-1.098367	-0.254760	-1.764870	-1.013877	-3.184680	-12.888681	-7.518508	0.000000	0.000000	14.928878	12.691436	-18.069820	75.643527	-31.592455	65.205795	149.926166	86.043335	1.155902	-2.223021	7.899974	-19.848098	121.400209	9.581801	7.102873	-17.935506	-10.857457
3.700000	-4.598874	1.196761	90.856551	0.210294	0.866731	0.680036	-2.393286	-4.604018	2.279812	6.265783	0.109359	27.470403	6.955832	0.000000	0.066537	3.581551	8.079969	7.940150	0.138582	21.849443	-1.454062	0.000000	-0.426525	-1.132447	-1.267266	-0.792100	-1.506154	-1.346471	-0.700738	-2.753430	-1.346471	-0.487476	-2.753430	-1.108858	-0.396071	-2.309285	-1.029654	-0.243717	-1.754160	-0.950450	-3.046628	-12.810461	-7.048156	0.000000	0.000000	15.029176	12.552323	-18.726347	74.984431	-32.147843	65.240633	149.961289	86.423334	0.394451	-1.600307	8.184477	-19.753625	122.030932	9.570712	7.158214	-17.996588	-10.810954
3.716667	-4.523831	1.037042	90.864442	0.210085	0.866526	0.679414	-2.287932	-4.524230	2.468450	6.210544	0.108394	27.398641	6.700652	0.000000	0.185086	3.513652	7.990236	7.978314	0.139248	21.733804	-1.551643	0.000000	-0.403844	-1.124432	-1.161207	-0.749979	-1.495494	-1.233782	-0.663476	-2.733944	-1.233782	-0.461554	-2.733944	-1.016056	-0.375010	-2.292941	-0.943481	-0.230757	-1.741745	-0.870905	-2.884620	-12.719798	-6.458284	0.000000	0.000000	15.144325	12.396153	-19.559327	74.273651	-32.812478	65.273126	150.058444	86.693388	-0.124737	-0.712877	8.504683	-19.646986	122.352034	9.610721	7.178939	-17.953217	-10.798852
3.733333	-4.429102	0.854858	90.870223	0.209814	0.866293	0.678699	-2.165298	-4.426831	2.663335	6.153307	0.107395	27.353615	6.434953	0.000000	0.324974	3.427262	7.817333	8.031591	0.140178	21.586849	-1.623811	0.000000	-0.379344	-1.114553	-1.037339	-0.704481	-1.482355	-1.102173	-0.623225	-2.709924	-1.102173	-0.433553	-2.709924	-0.907672	-0.352259	-2.272796	-0.842838	-0.216757	-1.726443	-0.778005	-2.709620	-12.608046	-5.769371	0.000000	0.000000	15.305386	12.247312	-20.525813	73.538715	-33.608647	65.289871	150.198210	86.888739	-0.406358	0.410006	8.846139	-19.530210	122.312118	9.705788	7.165130	-17.793830	-10.831220
3.750000	-4.335131	0.645193	90.854614	0.209542	0.866031	0.677894	-2.013462	-4.331455	2.898211	6.099724	0.106460	27.332381	6.133108	0.000000	0.492094	3.341793	7.545442	8.094928	0.141283	21.414023	-1.652446	0.000000	-0.351933	-1.106117	-0.891478	-0.653575	-1.471135	-0.947196	-0.578191	-2.689412	-0.947196	-0.402224	-2.689412	-0.780044	-0.326805	-2.255593	-0.724326	-0.201095	-1.713375	-0.668609	-2.513824	-12.512613	-4.958136	0.000000	0.000000	15.488053	12.079579	-21.693791	72.771795	-34.585967	65.258785	150.350027	87.112320	-0.517325	1.680014	9.200592	-19.425345	121.850121	9.870221	7.207387	-17.525300	-10.906016
3.766667	-4.243820	0.409640	90.825822	0.209252	0.865710	0.677033	-1.833263	-4.243197	3.116712	6.049865	0.105590	27.356333	5.869933	0.000000	0.682934	3.259758	7.228392	8.153549	0.142306	21.253102	-1.625273	0.000000	-0.322476	-1.098658	-0.725212	-0.598871	-1.461215	-0.770538	-0.529796	-2.671277	-0.770538	-0.368558	-2.671277	-0.634560	-0.299452	-2.240383	-0.589235	-0.184263	-1.701821	-0.543909	-2.303416	-12.428237	-4.033411	0.000000	0.000000	15.724605	11.910263	-23.000771	71.959939	-35.749983	65.074032	150.469272	87.307200	-0.438041	3.132289	9.581227	-19.317908	121.143045	10.089419	7.275040	-17.181537	-11.001453
3.783333	-4.157700	0.162113	90.791647	0.208982	0.865360	0.676120	-1.637249	-4.162402	3.282437	6.011991	0.104929	27.413263	5.678853	0.000000	0.878049	3.189523	6.995606	8.194509	0.143021	21.055482	-1.728157	0.000000	-0.292289	-1.092625	-0.544136	-0.542810	-1.453191	-0.578144	-0.480201	-2.656608	-0.578144	-0.334057	-2.656608	-0.476119	-0.271419	-2.228081	-0.442110	-0.167014	-1.692476	-0.408102	-2.087790	-12.359993	-3.026319	0.000000	0.000000	15.995321	11.742368	-24.403252	71.105582	-37.113838	64.783576	150.524506	87.625590	-0.605554	4.636674	10.014201	-19.192981	120.721129	10.310171	7.351096	-16.874077	-11.034032
3.800000	-4.080427	-0.097319	90.743050	0.208739	0.864975	0.675194	-1.418233	-4.094008	3.400969	5.991960	0.104579	27.497739	5.565942	0.000000	1.087390	3.128846	6.751513	8.233114	0.143695	20.864881	-1.822867	0.000000	-0.261204	-1.088560	-0.350872	-0.485083	-1.447784	-0.372801	-0.429133	-2.646724	-0.372801	-0.298530	-2.646724	-0.307013	-0.242554	-2.219791	-0.285083	-0.149252	-1.686179	-0.263154	-1.865757	-12.314003	-1.951444	0.000000	0.000000	16.290063	11.542419	-25.927550	70.197316	-38.661500	64.312752	150.450537	87.702663	-0.789355	6.134385	10.467481	-19.063097	120.343167	10.539759	7.427076	-16.552130	-11.083196
3.816667	-4.012831	-0.355999	90.689078	0.208529	0.864575	0.674297	-1.191977	-4.038915	3.446789	5.981758	0.104401	27.594910	5.557296	0.000000	1.298574	3.077711	6.511269	8.263293	0.144222	20.676335	-1.914550	0.000000	-0.230626	-1.086302	-0.157293	-0.428296	-1.444782	-0.167124	-0.378896	-2.641236	-0.167124	-0.263583	-2.641236	-0.137631	-0.214160	-2.215188	-0.127801	-0.131780	-1.682682	-0.117970	-1.647341	-12.288470	-0.874817	0.000000	0.000000	16.599250	11.308523	-27.498203	69.264513	-40.308597	63.663044	150.148994	87.040828	-0.742527	7.735926	10.923245	-18.933218	120.069472	10.760859	7.614848	-16.312341	-11.114961
3.833333	-3.962155	-0.597907	90.629196	0.208346	0.864192	0.673474	-0.968832	-4.006027	3.419593	5.990203	0.104549	27.699275	5.657768	0.000000	1.497679	3.044712	6.279527	8.286206	0.144622	20.489586	-2.013171	0.000000	-0.202919	-1.086306	0.029066	-0.376840	-1.444787	0.030883	-0.333375	-2.641244	0.030883	-0.231916	-2.641244	0.025433	-0.188430	-2.215195	0.023617	-0.115948	-1.682688	0.021800	-1.449428	-12.288509	0.161659	0.000000	0.000000	16.921553	11.074561	-29.015094	68.315899	-42.011952	62.879161	149.589671	85.593045	-0.519206	9.323242	11.359798	-18.814504	119.754007	10.981478	7.790448	-16.086225	-11.177812
3.850000	-3.920214	-0.816512	90.558947	0.208233	0.863836	0.672783	-0.751718	-3.984460	3.299531	6.016099	0.105001	27.808310	5.891221	0.000000	1.683748	3.016047	6.038296	8.305218	0.144953	20.322920	-2.071927	0.000000	-0.179043	-1.087284	0.200898	-0.332501	-1.446087	0.213454	-0.294150	-2.643622	0.213454	-0.204628	-2.643622	0.175786	-0.166260	-2.217189	0.163230	-0.102305	-1.684203	0.150673	-1.278888	-12.299571	1.117334	0.000000	0.000000	17.270437	10.849394	-30.387362	67.360313	-43.670929	61.970603	148.691870	83.149283	0.078866	11.033966	11.761303	-18.706561	119.422127	11.173538	7.846081	-15.818028	-11.296835
